<?xml version="1.0"?>
<svg xmlns="http://www.w3.org/2000/svg" xmlns:xlink="http://www.w3.org/1999/xlink" version="1.1" id="Capa_1" x="0px" y="0px" viewBox="0 0 512 512" style="enable-background:new 0 0 512 512;" xml:space="preserve" width="512px" height="512px" class=""><g transform="matrix(0.868746 0 0 0.868746 33.601 33.601)"><g><path style="fill:#2C2C2C" d="M387.544,344.031l-60.714-0.001c-0.006,0-0.013,0.001-0.02,0.001H124.455  c-32.082,0-58.182,26.1-58.182,58.182v102.196c0,4.191,3.398,7.589,7.589,7.589h364.234c0.013,0,0.025,0.002,0.039,0.002  c4.191,0,7.589-3.398,7.589-7.589V402.213C445.725,370.131,419.625,344.031,387.544,344.031z" data-original="#2C2C2C" class="" data-old_color="#965353"/><path style="fill:#3C3C3C" d="M387.544,344.031h-30.359c32.082,0,58.182,26.1,58.182,58.182v102.198  c0,4.178-3.377,7.566-7.549,7.587h30.281c0.013,0,0.025,0.002,0.039,0.002c4.191,0,7.589-3.398,7.589-7.589V402.213  C445.725,370.131,419.625,344.031,387.544,344.031z" data-original="#3C3C3C" class="" data-old_color="#864B4C"/><path style="fill:#DADDE1;" d="M319.215,349.751l0.022-0.082c0.015-0.056,0.036-0.108,0.053-0.163  c0.051-0.175,0.103-0.35,0.167-0.522c0.036-0.099,0.08-0.192,0.119-0.289c0.055-0.131,0.107-0.261,0.169-0.389  c0.066-0.136,0.139-0.265,0.211-0.395c0.047-0.084,0.09-0.17,0.141-0.252c0.101-0.165,0.21-0.323,0.323-0.479  c0.028-0.04,0.053-0.083,0.082-0.122c0.006-0.008,0.013-0.015,0.018-0.022c0.123-0.163,0.254-0.318,0.39-0.468  c0.035-0.039,0.068-0.082,0.104-0.121c0.119-0.128,0.247-0.248,0.374-0.366c0.059-0.055,0.113-0.113,0.172-0.166  c0.087-0.076,0.18-0.145,0.27-0.217c0.555-0.445,1.16-0.803,1.799-1.073c0.994-0.42,2.08-0.63,3.194-0.592c0.003,0,0.005,0,0.007,0  v-0.003h-0.001c-0.006,0-0.013,0.001-0.02,0.001H185.171v0.006c1.024,0,2.021,0.2,2.938,0.587c0.639,0.269,1.245,0.628,1.799,1.073  c0.09,0.072,0.183,0.141,0.27,0.217c0.06,0.053,0.114,0.111,0.172,0.166c0.128,0.119,0.254,0.239,0.374,0.366  c0.036,0.039,0.069,0.082,0.104,0.121c0.135,0.152,0.266,0.306,0.39,0.469c0.006,0.007,0.013,0.014,0.019,0.022  c0.029,0.039,0.054,0.082,0.082,0.122c0.112,0.156,0.222,0.314,0.323,0.479c0.051,0.083,0.094,0.168,0.141,0.252  c0.073,0.13,0.147,0.259,0.212,0.395c0.062,0.127,0.114,0.258,0.169,0.389c0.04,0.096,0.083,0.19,0.119,0.289  c0.064,0.172,0.116,0.347,0.167,0.522c0.016,0.056,0.037,0.107,0.053,0.163l0.021,0.082c0.004,0.015,0.008,0.029,0.012,0.045  L235.5,511.998h40.736l42.966-162.202C319.207,349.781,319.211,349.766,319.215,349.751z" data-original="#DADDE1" class=""/><path style="fill:#E1B6A2" d="M378.52,171.095c-32.774,3.856-76.286,5.979-122.519,5.979s-89.745-2.124-122.52-5.979  c-2.255-0.265-4.405-0.534-6.492-0.805v39.67c0,71.137,57.874,129.011,129.011,129.011s129.011-57.874,129.011-129.011v-39.67  C382.924,170.561,380.775,170.83,378.52,171.095z" data-original="#E1B6A2" class="" data-old_color="#FFDECF"/><path style="fill:#CFA395" d="M353.21,226.656c-2.995,36.447-22.099,68.33-50.168,88.507c-16.056,11.557-34.88,21.071-55.476,23.64  c4.974,0.62,10.626,0.112,15.768-0.021c26.751-0.696,50.132-9.272,70.066-23.619c28.069-20.176,47.173-52.06,50.168-88.507H353.21z" data-original="#CFA395" class="" data-old_color="#FFCDBE"/><g>
	<path style="fill:#3C3C3C" d="M385.015,511.998v-79.431c0-4.191-3.398-7.589-7.589-7.589s-7.589,3.398-7.589,7.589v79.431H385.015   z" data-original="#3C3C3C" class="" data-old_color="#864B4C"/>
	<path style="fill:#3C3C3C" d="M142.162,511.998v-79.431c0-4.191-3.398-7.589-7.589-7.589s-7.589,3.398-7.589,7.589v79.431H142.162   z" data-original="#3C3C3C" class="" data-old_color="#864B4C"/>
</g><path style="fill:#424242" d="M256.001,177.074c-46.234,0-89.745-2.124-122.52-5.979c-2.255-0.265-4.405-0.534-6.492-0.805v39.67  c0,6.008,0.422,11.918,1.22,17.709h107.553c1.179,0,2.34-0.274,3.394-0.801l16.844-8.423l16.844,8.423  c1.053,0.527,2.215,0.801,3.394,0.801H383.79c0.798-5.792,1.221-11.701,1.221-17.709v-39.67c-2.087,0.271-4.236,0.54-6.491,0.805  C345.746,174.951,302.234,177.074,256.001,177.074z" data-original="#424242" class="" data-old_color="#AC92EC"/><path style="fill:#000000" d="M354.648,181.07c0,0.018,0.002,0.035,0.002,0.053c0,0.014-0.002,0.027-0.002,0.042l-1.511,46.503  h30.609c0.843-3.289,1.26-7.72,1.26-11.13c0-11.596,0-46.383,0-46.383c-9.153,1.074-19.346,2.029-30.358,2.832L354.648,181.07  L354.648,181.07z" data-original="#000000" class="" data-old_color="#967ADC"/><g>
	<path style="fill:#E1B6A2" d="M157.383,173.449c-0.016,0.365-0.039,0.731-0.039,1.096c0,18.441,18.889,32.886,43.004,32.886   c23.023,0,41.27-13.171,42.876-30.411C212.165,176.755,182.713,175.522,157.383,173.449z" data-original="#E1B6A2" class="" data-old_color="#FFDECF"/>
	<path style="fill:#E1B6A2" d="M268.776,177.02c1.606,17.24,19.854,30.411,42.876,30.411c24.115,0,43.005-14.445,43.005-32.886   c0-0.366-0.015-0.732-0.03-1.097C329.293,175.522,299.839,176.755,268.776,177.02z" data-original="#E1B6A2" class="" data-old_color="#FFDECF"/>
</g><path style="fill:#303132" d="M435.605,149.248c0-0.632-0.086-1.244-0.232-1.83c-1.588-7.753-12.196-13.749-50.362-18.711v-40.17  C385.011,39.717,345.294,0,296.474,0h-80.948c-48.82,0-88.537,39.717-88.537,88.537v40.17c-38.164,4.962-48.772,10.958-50.36,18.711  c-0.146,0.587-0.232,1.198-0.232,1.83c0,0.084,0.007,0.166,0.008,0.25c-0.002,0.084-0.008,0.166-0.008,0.25  c0,0.632,0.086,1.244,0.232,1.83c1.675,8.176,13.361,14.4,56.852,19.517c32.774,3.856,76.286,5.979,122.52,5.979  s89.745-2.124,122.519-5.979c43.492-5.117,55.178-11.341,56.853-19.517c0.146-0.587,0.232-1.198,0.232-1.83  c0-0.084-0.007-0.166-0.008-0.25C435.597,149.414,435.605,149.332,435.605,149.248z" data-original="#303132" class="" data-old_color="#656D78"/><path style="fill:#424242" d="M284.59,512l-10.92-110.282c-0.385-3.882-3.651-6.841-7.551-6.841h-20.235  c-3.902,0-7.167,2.959-7.551,6.841L227.413,512H284.59z" data-original="#424242" class="" data-old_color="#DA4453"/><path style="fill:#181818" d="M354.652,88.537v84.909c8.444-0.692,16.435-1.476,23.868-2.351  c43.492-5.117,55.178-11.341,56.853-19.517c0.146-0.587,0.232-1.198,0.232-1.83c0-0.084-0.007-0.166-0.008-0.25  c0.001-0.084,0.008-0.166,0.008-0.25c0-0.632-0.086-1.244-0.232-1.83c-1.588-7.753-12.196-13.749-50.362-18.711v-40.17  C385.011,39.717,345.294,0,296.474,0h-30.359C314.935,0,354.652,39.717,354.652,88.537z" data-original="#181818" class="" data-old_color="#434A54"/><path style="fill:#424242" d="M293.933,371.844c-0.005-0.147-0.01-0.292-0.023-0.437c-0.009-0.094-0.023-0.187-0.036-0.28  c-0.019-0.148-0.038-0.294-0.067-0.44c-0.019-0.099-0.045-0.197-0.068-0.296c-0.031-0.135-0.062-0.27-0.101-0.403  c-0.033-0.113-0.073-0.225-0.111-0.336c-0.039-0.114-0.076-0.229-0.12-0.341c-0.051-0.126-0.108-0.251-0.166-0.374  c-0.044-0.094-0.084-0.188-0.131-0.28c-0.067-0.131-0.141-0.256-0.215-0.382c-0.049-0.083-0.095-0.167-0.147-0.249  c-0.077-0.121-0.162-0.238-0.246-0.355c-0.061-0.084-0.119-0.168-0.183-0.25c-0.08-0.102-0.167-0.199-0.252-0.297  c-0.081-0.092-0.16-0.185-0.246-0.273c-0.076-0.08-0.157-0.155-0.237-0.231c-0.105-0.101-0.212-0.2-0.325-0.295  c-0.071-0.061-0.147-0.117-0.221-0.175c-0.128-0.1-0.257-0.198-0.393-0.291c-0.028-0.019-0.053-0.043-0.082-0.061  c-0.052-0.034-0.105-0.062-0.158-0.094c-0.13-0.082-0.261-0.162-0.397-0.237c-0.106-0.059-0.212-0.111-0.321-0.164  c-0.11-0.054-0.222-0.107-0.336-0.157c-0.14-0.061-0.279-0.113-0.42-0.164c-0.061-0.021-0.116-0.05-0.178-0.07l-30.355-10.119  c-0.059-0.02-0.117-0.031-0.176-0.049c-0.129-0.04-0.259-0.076-0.391-0.109c-0.114-0.028-0.229-0.055-0.344-0.078  c-0.126-0.025-0.254-0.047-0.383-0.066c-0.121-0.018-0.243-0.034-0.363-0.047c-0.122-0.012-0.245-0.02-0.368-0.026  c-0.128-0.006-0.254-0.011-0.38-0.011c-0.118,0-0.236,0.004-0.355,0.01c-0.132,0.006-0.263,0.014-0.394,0.027  c-0.113,0.011-0.227,0.026-0.339,0.043c-0.136,0.02-0.271,0.043-0.405,0.07c-0.108,0.021-0.217,0.047-0.326,0.074  c-0.137,0.034-0.272,0.071-0.406,0.112c-0.057,0.018-0.113,0.028-0.17,0.048l-30.355,10.119c-0.063,0.02-0.12,0.049-0.181,0.071  c-0.14,0.051-0.277,0.103-0.415,0.162c-0.116,0.05-0.229,0.104-0.34,0.159c-0.106,0.052-0.212,0.105-0.317,0.163  c-0.137,0.075-0.268,0.155-0.398,0.237c-0.052,0.032-0.106,0.06-0.158,0.094c-0.028,0.018-0.054,0.041-0.082,0.061  c-0.135,0.092-0.264,0.19-0.392,0.29c-0.075,0.059-0.15,0.116-0.223,0.177c-0.111,0.094-0.217,0.193-0.322,0.292  c-0.081,0.077-0.163,0.154-0.24,0.234c-0.084,0.087-0.163,0.178-0.242,0.269c-0.088,0.1-0.175,0.199-0.257,0.303  c-0.062,0.079-0.119,0.162-0.178,0.243c-0.086,0.119-0.172,0.238-0.251,0.361c-0.05,0.078-0.094,0.16-0.142,0.24  c-0.076,0.13-0.152,0.259-0.221,0.393c-0.045,0.088-0.084,0.178-0.125,0.268c-0.06,0.129-0.119,0.256-0.171,0.388  c-0.043,0.108-0.078,0.218-0.116,0.327c-0.04,0.116-0.082,0.233-0.116,0.35c-0.037,0.129-0.067,0.259-0.098,0.391  c-0.024,0.102-0.051,0.203-0.07,0.308c-0.027,0.143-0.046,0.287-0.065,0.432c-0.013,0.096-0.028,0.191-0.037,0.288  c-0.013,0.143-0.018,0.286-0.023,0.43c-0.004,0.104-0.009,0.206-0.009,0.311c0.001,0.13,0.009,0.26,0.016,0.391  c0.006,0.121,0.013,0.243,0.025,0.365c0.011,0.11,0.029,0.221,0.046,0.331c0.021,0.143,0.045,0.285,0.074,0.428  c0.02,0.094,0.045,0.187,0.068,0.28c0.038,0.155,0.08,0.31,0.129,0.462c0.011,0.033,0.017,0.068,0.028,0.101  c0.011,0.033,0.029,0.063,0.04,0.096c0.12,0.343,0.258,0.682,0.43,1.012c0.007,0.013,0.012,0.026,0.019,0.04  c0.119,0.225,0.251,0.446,0.396,0.663l20.238,30.357c1.462,2.194,3.868,3.381,6.321,3.381h20.221c2.452,0,4.859-1.187,6.321-3.381  l20.237-30.357c0.145-0.217,0.275-0.438,0.396-0.663c0.007-0.013,0.012-0.027,0.019-0.04c0.172-0.33,0.311-0.669,0.43-1.012  c0.011-0.033,0.029-0.062,0.04-0.096c0.011-0.033,0.017-0.068,0.028-0.101c0.049-0.153,0.09-0.307,0.129-0.461  c0.023-0.094,0.049-0.188,0.068-0.282c0.029-0.142,0.052-0.282,0.073-0.425c0.017-0.111,0.035-0.223,0.047-0.334  c0.012-0.12,0.018-0.241,0.025-0.361c0.007-0.132,0.016-0.264,0.016-0.396C293.942,372.047,293.937,371.945,293.933,371.844z" data-original="#424242" class="" data-old_color="#ED5564"/><path style="fill:#E6E9ED" d="M261.482,338.847c-0.242,0.011-0.491,0.018-0.736,0.028c-0.588,0.021-1.177,0.045-1.767,0.059  c-0.974,0.023-1.965,0.038-2.98,0.038c-1.015,0-2.004-0.014-2.979-0.038c-0.591-0.013-1.179-0.037-1.768-0.059  c-0.244-0.01-0.493-0.017-0.735-0.028c-20.914-0.879-40.554-6.758-57.757-16.474v29.247c0,0.033,0.004,0.067,0.005,0.099  c0.002,0.155,0.012,0.308,0.023,0.461c0.008,0.104,0.014,0.209,0.026,0.314c0.015,0.126,0.036,0.253,0.058,0.378  c0.021,0.126,0.04,0.252,0.068,0.376c0.021,0.099,0.05,0.196,0.076,0.293c0.037,0.144,0.075,0.287,0.12,0.428  c0.027,0.083,0.061,0.163,0.09,0.245c0.054,0.148,0.107,0.295,0.17,0.438c0.037,0.086,0.081,0.169,0.122,0.254  c0.064,0.132,0.125,0.264,0.196,0.392c0.059,0.105,0.124,0.205,0.187,0.308c0.063,0.101,0.122,0.203,0.19,0.302  c0.083,0.121,0.174,0.236,0.263,0.352c0.058,0.074,0.111,0.15,0.171,0.222c0.101,0.12,0.208,0.235,0.318,0.35  c0.06,0.063,0.116,0.128,0.177,0.188c0.105,0.104,0.218,0.201,0.329,0.298c0.077,0.067,0.152,0.136,0.231,0.199  c0.097,0.079,0.2,0.152,0.302,0.226c0.105,0.077,0.21,0.154,0.32,0.226c0.084,0.055,0.172,0.105,0.259,0.158  c0.136,0.081,0.272,0.16,0.413,0.233c0.028,0.015,0.055,0.032,0.083,0.047l25.29,20.235c0.004,0.002,0.008,0.003,0.011,0.005  c0.32,0.159,0.646,0.286,0.974,0.398c0.093,0.031,0.188,0.056,0.282,0.084c0.257,0.076,0.516,0.138,0.776,0.185  c0.099,0.018,0.196,0.037,0.295,0.052c0.35,0.049,0.699,0.082,1.048,0.082c0.004,0,0.006,0.001,0.01,0.001  c0.024,0,0.049-0.005,0.073-0.006c0.351-0.003,0.699-0.032,1.043-0.084c0.122-0.018,0.243-0.052,0.365-0.076  c0.256-0.051,0.509-0.109,0.758-0.186c0.054-0.017,0.107-0.022,0.161-0.039l27.162-9.054h1.586l27.162,9.054  c0.053,0.017,0.106,0.022,0.159,0.038c0.25,0.078,0.505,0.136,0.762,0.187c0.121,0.024,0.242,0.058,0.363,0.076  c0.345,0.052,0.693,0.08,1.044,0.084c0.024,0,0.049,0.006,0.073,0.006c0.003,0,0.006-0.001,0.01-0.001  c0.349,0,0.699-0.033,1.048-0.082c0.099-0.014,0.196-0.033,0.295-0.052c0.261-0.048,0.52-0.109,0.777-0.185  c0.094-0.027,0.188-0.052,0.281-0.083c0.33-0.111,0.658-0.239,0.978-0.4c0.002-0.001,0.004-0.002,0.007-0.003l25.291-20.235  c0.028-0.014,0.055-0.032,0.083-0.047c0.141-0.073,0.277-0.152,0.413-0.233c0.087-0.053,0.175-0.103,0.259-0.158  c0.109-0.072,0.214-0.149,0.319-0.226c0.102-0.074,0.204-0.148,0.302-0.226c0.079-0.064,0.154-0.133,0.231-0.199  c0.111-0.098,0.224-0.195,0.329-0.299c0.062-0.061,0.118-0.125,0.177-0.188c0.108-0.114,0.217-0.23,0.318-0.35  c0.06-0.072,0.114-0.148,0.171-0.222c0.089-0.116,0.18-0.232,0.263-0.352c0.067-0.098,0.126-0.2,0.19-0.302  c0.063-0.102,0.129-0.202,0.186-0.308c0.071-0.128,0.133-0.26,0.196-0.392c0.041-0.085,0.085-0.167,0.122-0.254  c0.063-0.144,0.116-0.291,0.17-0.438c0.029-0.082,0.063-0.162,0.09-0.245c0.046-0.141,0.083-0.284,0.12-0.428  c0.025-0.098,0.054-0.195,0.076-0.293c0.027-0.124,0.047-0.25,0.068-0.376c0.021-0.125,0.043-0.252,0.058-0.378  c0.012-0.104,0.018-0.208,0.026-0.314c0.011-0.154,0.021-0.307,0.023-0.461c0.001-0.033,0.005-0.066,0.005-0.099v-29.248  C302.037,332.088,282.396,337.967,261.482,338.847z" data-original="#E6E9ED" class="active-path" data-old_color="#E6E9ED"/><g>
	<path style="fill:#000000" d="M235.5,511.998l-42.966-162.202c-0.004-0.015-0.008-0.029-0.012-0.045l-0.021-0.082   c-0.015-0.056-0.036-0.108-0.053-0.163c-0.051-0.175-0.103-0.35-0.167-0.522c-0.036-0.099-0.08-0.192-0.119-0.289   c-0.055-0.131-0.107-0.261-0.169-0.389c-0.066-0.136-0.139-0.265-0.213-0.395c-0.047-0.084-0.09-0.17-0.141-0.252   c-0.101-0.165-0.21-0.323-0.323-0.479c-0.028-0.04-0.053-0.083-0.082-0.122c-0.006-0.008-0.013-0.015-0.019-0.022   c-0.123-0.163-0.254-0.318-0.39-0.468c-0.035-0.039-0.068-0.082-0.104-0.121c-0.119-0.128-0.247-0.248-0.374-0.366   c-0.059-0.055-0.113-0.113-0.172-0.166c-0.087-0.076-0.18-0.145-0.27-0.217c-0.555-0.445-1.16-0.803-1.799-1.073   c-0.994-0.42-2.08-0.63-3.194-0.592c-0.047,0.001-0.092-0.001-0.139,0.001c-0.115,0.006-0.232,0.022-0.347,0.033   c-0.14,0.014-0.278,0.024-0.417,0.046c-0.07,0.011-0.141,0.028-0.211,0.041c-0.182,0.033-0.364,0.069-0.544,0.115   c-0.011,0.003-0.023,0.004-0.034,0.007c-0.057,0.015-0.11,0.037-0.166,0.054c-0.174,0.051-0.347,0.102-0.519,0.166   c-0.098,0.036-0.191,0.079-0.287,0.119c-0.132,0.055-0.262,0.107-0.392,0.17c-0.133,0.065-0.258,0.136-0.386,0.207   c-0.087,0.049-0.176,0.094-0.262,0.147c-0.159,0.097-0.31,0.202-0.46,0.31c-0.046,0.032-0.093,0.06-0.139,0.093l-0.067,0.05   c-0.013,0.01-0.025,0.019-0.038,0.028l-40.372,30.277c-0.037,0.028-0.07,0.06-0.106,0.088c-0.103,0.081-0.204,0.166-0.306,0.254   c-0.103,0.089-0.204,0.179-0.302,0.273c-0.032,0.031-0.068,0.058-0.1,0.09c-0.047,0.047-0.087,0.098-0.132,0.147   c-0.103,0.108-0.204,0.219-0.301,0.333c-0.069,0.082-0.135,0.165-0.199,0.249c-0.088,0.113-0.173,0.228-0.254,0.345   c-0.065,0.095-0.126,0.191-0.187,0.287c-0.069,0.11-0.136,0.221-0.197,0.334c-0.061,0.109-0.117,0.221-0.173,0.333   c-0.052,0.105-0.101,0.21-0.147,0.318c-0.053,0.122-0.102,0.245-0.148,0.369c-0.038,0.103-0.075,0.206-0.108,0.312   c-0.041,0.13-0.079,0.258-0.114,0.389c-0.027,0.105-0.054,0.21-0.077,0.317c-0.028,0.129-0.054,0.259-0.075,0.39   c-0.018,0.111-0.034,0.224-0.049,0.337c-0.015,0.125-0.026,0.25-0.035,0.375c-0.008,0.12-0.014,0.241-0.017,0.361   c-0.002,0.118-0.002,0.236,0,0.354c0.003,0.128,0.009,0.255,0.018,0.383c0.008,0.112,0.02,0.225,0.033,0.337   c0.015,0.131,0.034,0.261,0.057,0.391c0.019,0.11,0.041,0.221,0.065,0.331c0.028,0.128,0.059,0.254,0.093,0.38   c0.031,0.114,0.066,0.227,0.102,0.34c0.038,0.118,0.079,0.235,0.123,0.352c0.046,0.12,0.095,0.239,0.148,0.358   c0.047,0.105,0.094,0.209,0.146,0.314c0.063,0.125,0.131,0.25,0.2,0.373c0.054,0.094,0.107,0.188,0.166,0.28   c0.077,0.124,0.16,0.245,0.245,0.364c0.039,0.056,0.073,0.113,0.113,0.168c0.024,0.032,0.053,0.06,0.078,0.091   c0.116,0.149,0.241,0.293,0.369,0.436c0.069,0.077,0.136,0.156,0.207,0.23c0.018,0.018,0.032,0.038,0.051,0.056l26.489,26.49   l-7.662,15.324c-0.115,0.231-0.22,0.466-0.312,0.706c-0.046,0.119-0.08,0.241-0.119,0.361c-0.036,0.111-0.077,0.222-0.108,0.334   c-0.043,0.153-0.073,0.307-0.105,0.46c-0.018,0.086-0.04,0.17-0.056,0.256c-0.026,0.153-0.042,0.305-0.06,0.458   c-0.01,0.093-0.024,0.185-0.031,0.278c-0.01,0.137-0.011,0.273-0.013,0.41c-0.003,0.112-0.008,0.225-0.005,0.337   c0.003,0.115,0.014,0.229,0.021,0.343c0.009,0.135,0.017,0.269,0.033,0.403c0.012,0.095,0.031,0.188,0.047,0.282   c0.024,0.15,0.048,0.299,0.081,0.448c0.02,0.088,0.048,0.174,0.07,0.261c0.039,0.15,0.077,0.299,0.125,0.447   c0.037,0.112,0.083,0.221,0.125,0.331c0.045,0.118,0.086,0.237,0.137,0.353c0.103,0.235,0.218,0.465,0.344,0.689l42.649,75.689   H235.5z" data-original="#000000" class="" data-old_color="#A35D5D"/>
	<path style="fill:#000000" d="M276.237,511.998l42.966-162.202c0.004-0.015,0.008-0.029,0.012-0.045l0.022-0.082   c0.015-0.056,0.036-0.108,0.053-0.163c0.051-0.175,0.103-0.35,0.167-0.522c0.036-0.099,0.08-0.192,0.119-0.289   c0.055-0.131,0.107-0.261,0.169-0.389c0.066-0.136,0.139-0.265,0.211-0.395c0.047-0.084,0.09-0.17,0.141-0.252   c0.101-0.165,0.21-0.323,0.323-0.479c0.028-0.04,0.053-0.083,0.082-0.122c0.006-0.008,0.013-0.015,0.018-0.022   c0.123-0.163,0.254-0.318,0.39-0.468c0.035-0.039,0.068-0.082,0.104-0.121c0.119-0.128,0.247-0.248,0.374-0.366   c0.059-0.055,0.113-0.113,0.172-0.166c0.087-0.076,0.18-0.145,0.27-0.217c0.555-0.445,1.16-0.803,1.799-1.073   c0.994-0.42,2.08-0.63,3.194-0.592c0.047,0.001,0.092-0.001,0.139,0.001c0.115,0.006,0.232,0.022,0.347,0.033   c0.14,0.014,0.278,0.024,0.417,0.046c0.07,0.011,0.141,0.028,0.211,0.041c0.182,0.033,0.364,0.069,0.544,0.115   c0.011,0.003,0.023,0.004,0.034,0.007c0.057,0.015,0.11,0.037,0.167,0.054c0.174,0.051,0.347,0.102,0.519,0.166   c0.098,0.036,0.191,0.079,0.287,0.119c0.132,0.055,0.262,0.107,0.392,0.17c0.133,0.065,0.258,0.136,0.386,0.207   c0.087,0.049,0.176,0.094,0.262,0.147c0.159,0.097,0.31,0.202,0.46,0.31c0.046,0.032,0.093,0.06,0.139,0.093l0.067,0.05   c0.013,0.01,0.025,0.019,0.038,0.028l40.372,30.277c0.037,0.028,0.07,0.06,0.106,0.088c0.103,0.081,0.204,0.166,0.306,0.254   c0.103,0.089,0.204,0.179,0.302,0.273c0.032,0.031,0.068,0.058,0.1,0.09c0.047,0.047,0.087,0.098,0.132,0.147   c0.104,0.108,0.204,0.219,0.301,0.333c0.069,0.082,0.135,0.165,0.199,0.249c0.088,0.113,0.173,0.228,0.254,0.345   c0.065,0.095,0.126,0.191,0.187,0.287c0.069,0.11,0.136,0.221,0.197,0.334c0.061,0.109,0.117,0.221,0.173,0.333   c0.052,0.105,0.101,0.21,0.148,0.318c0.053,0.122,0.102,0.245,0.148,0.369c0.038,0.103,0.075,0.206,0.108,0.312   c0.041,0.13,0.079,0.258,0.114,0.389c0.027,0.105,0.054,0.21,0.077,0.317c0.028,0.129,0.054,0.259,0.075,0.39   c0.018,0.111,0.034,0.224,0.049,0.337c0.015,0.125,0.026,0.25,0.035,0.375c0.008,0.12,0.014,0.241,0.017,0.361   c0.003,0.118,0.002,0.236,0,0.354c-0.003,0.128-0.009,0.255-0.018,0.383c-0.008,0.112-0.02,0.225-0.033,0.337   c-0.015,0.131-0.034,0.261-0.057,0.391c-0.019,0.11-0.041,0.221-0.065,0.331c-0.028,0.128-0.059,0.254-0.093,0.38   c-0.031,0.114-0.066,0.227-0.102,0.34c-0.038,0.118-0.079,0.235-0.123,0.352c-0.046,0.12-0.095,0.239-0.148,0.358   c-0.047,0.105-0.094,0.209-0.146,0.314c-0.063,0.125-0.131,0.25-0.2,0.373c-0.054,0.094-0.107,0.188-0.166,0.28   c-0.077,0.124-0.16,0.245-0.245,0.364c-0.039,0.056-0.073,0.113-0.113,0.168c-0.024,0.032-0.053,0.06-0.078,0.091   c-0.116,0.149-0.241,0.293-0.369,0.436c-0.069,0.077-0.136,0.156-0.207,0.23c-0.018,0.018-0.032,0.038-0.051,0.056l-26.489,26.49   l7.662,15.324c0.115,0.231,0.22,0.466,0.312,0.706c0.046,0.119,0.08,0.241,0.119,0.361c0.036,0.111,0.077,0.222,0.108,0.334   c0.043,0.153,0.073,0.307,0.104,0.46c0.018,0.086,0.04,0.17,0.056,0.256c0.026,0.153,0.042,0.305,0.06,0.458   c0.01,0.093,0.024,0.185,0.031,0.278c0.01,0.137,0.011,0.273,0.013,0.41c0.002,0.112,0.008,0.225,0.005,0.337   c-0.003,0.115-0.014,0.229-0.021,0.343c-0.009,0.135-0.017,0.269-0.033,0.403c-0.012,0.095-0.031,0.188-0.047,0.282   c-0.024,0.15-0.048,0.299-0.081,0.448c-0.02,0.088-0.048,0.174-0.07,0.261c-0.039,0.15-0.077,0.299-0.125,0.447   c-0.037,0.112-0.083,0.221-0.125,0.331c-0.046,0.118-0.086,0.237-0.137,0.353c-0.103,0.235-0.218,0.465-0.344,0.689l-42.649,75.689   H276.237z" data-original="#000000" class="" data-old_color="#A35D5D"/>
</g></g></g> </svg>
